<svg width="12" height="13" viewBox="0 0 12 13" fill="none" xmlns="http://www.w3.org/2000/svg">
<path fill-rule="evenodd" clip-rule="evenodd" d="M6 12.6001C9.312 12.6001 12 9.9121 12 6.6001C12 3.2881 9.312 0.600098 6 0.600098C2.688 0.600098 0 3.2881 0 6.6001C0 9.9121 2.688 12.6001 6 12.6001ZM8.778 5.6281C9.072 5.3341 9.072 4.8601 8.778 4.5661C8.484 4.2721 8.01 4.2721 7.716 4.5661L5.244 7.0381L4.272 6.0661C3.978 5.7721 3.504 5.7721 3.21 6.0661C2.916 6.3601 2.916 6.8341 3.21 7.1281L4.71 8.6281C5.004 8.9221 5.478 8.9221 5.772 8.6281L8.772 5.6281H8.778Z" fill="#1D4ED8"/>
</svg>
